<svg width="92" height="92" viewBox="0 0 92 92" fill="none" xmlns="http://www.w3.org/2000/svg">
<circle cx="46" cy="46" r="46" fill="white"/>
<path d="M28.0904 71H68.0904C70.8518 71 73.0904 68.7614 73.0904 66C73.0904 63.2386 70.8518 61 68.0904 61H33.0904C30.329 61 28.0904 58.7614 28.0904 56C28.0904 53.2386 30.329 51 33.0904 51H68.0904C70.8518 51 73.0904 48.7614 73.0904 46C73.0904 43.2386 70.8518 41 68.0904 41H28.0904C22.5676 41 18.0904 45.4772 18.0904 51V61C18.0904 66.5228 22.5676 71 28.0904 71Z" fill="#5D3EDE" stroke="#5D3EDE"/>
<path d="M18.0904 40.8171V41C18.0899 40.9389 18.0899 40.8779 18.0904 40.8171V31C18.0904 25.4772 22.5676 21 28.0904 21H68.0904C70.8518 21 73.0904 23.2386 73.0904 26C73.0904 28.7614 70.8518 31 68.0904 31H28.0004C22.5531 31 18.1395 35.3927 18.0904 40.8171Z" fill="#00ECAA"/>
<path d="M18.0904 41V31V31C18.0904 25.4772 22.5676 21 28.0904 21H68.0904C70.8518 21 73.0904 23.2386 73.0904 26V26C73.0904 28.7614 70.8518 31 68.0904 31H28.0004C22.492 31 18.0406 35.4918 18.0904 41V41Z" stroke="#00ECAA" stroke-linejoin="round"/>
</svg>
