<svg width="143" height="74" viewBox="0 0 143 74" fill="none" xmlns="http://www.w3.org/2000/svg">
<path d="M11.0905 66H51.0905C53.8519 66 56.0905 63.7614 56.0905 61C56.0905 58.2386 53.8519 56 51.0905 56H16.0905C13.329 56 11.0905 53.7614 11.0905 51C11.0905 48.2386 13.329 46 16.0905 46H51.0905C53.8519 46 56.0905 43.7614 56.0905 41C56.0905 38.2386 53.8519 36 51.0905 36H11.0905C5.56761 36 1.09045 40.4772 1.09045 46V56C1.09045 61.5228 5.56761 66 11.0905 66Z" stroke="#5D3EDE"/>
<path d="M1.09041 36V26V26C1.09041 20.4772 5.56757 16 11.0904 16H51.0904C53.8518 16 56.0904 18.2386 56.0904 21V21C56.0904 23.7614 53.8518 26 51.0904 26H11.0004C5.49204 26 1.04062 30.4918 1.09041 36V36Z" stroke="#00ECAA" stroke-linejoin="round"/>
<path d="M80.2045 16.5455L74.1023 34H68.6477L62.5455 16.5455H67.6591L71.2841 29.0341H71.4659L75.0795 16.5455H80.2045ZM90.0739 34.3409C88.2784 34.3409 86.733 33.9773 85.4375 33.25C84.1496 32.5152 83.1572 31.4773 82.4602 30.1364C81.7633 28.7879 81.4148 27.1932 81.4148 25.3523C81.4148 23.5568 81.7633 21.9811 82.4602 20.625C83.1572 19.2689 84.1383 18.2121 85.4034 17.4545C86.6761 16.697 88.1686 16.3182 89.8807 16.3182C91.0322 16.3182 92.1042 16.5038 93.0966 16.875C94.0966 17.2386 94.9678 17.7879 95.7102 18.5227C96.4602 19.2576 97.0436 20.1818 97.4602 21.2955C97.8769 22.4015 98.0852 23.697 98.0852 25.1818V26.5114H83.3466V23.5114H93.5284C93.5284 22.8144 93.3769 22.197 93.0739 21.6591C92.7708 21.1212 92.3504 20.7008 91.8125 20.3977C91.2822 20.0871 90.6648 19.9318 89.9602 19.9318C89.2254 19.9318 88.5739 20.1023 88.0057 20.4432C87.4451 20.7765 87.0057 21.2273 86.6875 21.7955C86.3693 22.3561 86.2064 22.9811 86.1989 23.6705V26.5227C86.1989 27.3864 86.358 28.1326 86.6761 28.7614C87.0019 29.3902 87.4602 29.875 88.0511 30.2159C88.642 30.5568 89.3428 30.7273 90.1534 30.7273C90.6913 30.7273 91.1837 30.6515 91.6307 30.5C92.0777 30.3485 92.4602 30.1212 92.7784 29.8182C93.0966 29.5152 93.339 29.1439 93.5057 28.7045L97.983 29C97.7557 30.0758 97.2898 31.0152 96.5852 31.8182C95.8883 32.6136 94.9867 33.2348 93.8807 33.6818C92.7822 34.1212 91.5133 34.3409 90.0739 34.3409ZM106.085 23.9091V34H101.244V16.5455H105.858V19.625H106.062C106.449 18.6098 107.097 17.8068 108.006 17.2159C108.915 16.6174 110.017 16.3182 111.312 16.3182C112.525 16.3182 113.581 16.5833 114.483 17.1136C115.384 17.6439 116.085 18.4015 116.585 19.3864C117.085 20.3636 117.335 21.5303 117.335 22.8864V34H112.494V23.75C112.502 22.6818 112.229 21.8485 111.676 21.25C111.123 20.6439 110.362 20.3409 109.392 20.3409C108.741 20.3409 108.165 20.4811 107.665 20.7614C107.172 21.0417 106.786 21.4508 106.506 21.9886C106.233 22.5189 106.093 23.1591 106.085 23.9091ZM130.435 16.5455V20.1818H119.923V16.5455H130.435ZM122.31 12.3636H127.151V28.6364C127.151 29.0833 127.219 29.4318 127.355 29.6818C127.491 29.9242 127.681 30.0947 127.923 30.1932C128.173 30.2917 128.461 30.3409 128.787 30.3409C129.014 30.3409 129.241 30.322 129.469 30.2841C129.696 30.2386 129.87 30.2045 129.991 30.1818L130.753 33.7841C130.51 33.8598 130.17 33.947 129.73 34.0455C129.291 34.1515 128.757 34.2159 128.128 34.2386C126.961 34.2841 125.938 34.1288 125.06 33.7727C124.188 33.4167 123.51 32.8636 123.026 32.1136C122.541 31.3636 122.302 30.4167 122.31 29.2727V12.3636Z" fill="#5D3EDE"/>
<path d="M64.0227 66V42.7273H73.2045C74.9697 42.7273 76.4735 43.0644 77.7159 43.7386C78.9583 44.4053 79.9053 45.3333 80.5568 46.5227C81.2159 47.7045 81.5455 49.0682 81.5455 50.6136C81.5455 52.1591 81.2121 53.5227 80.5455 54.7045C79.8788 55.8864 78.9129 56.8068 77.6477 57.4659C76.3902 58.125 74.8674 58.4545 73.0795 58.4545H67.2273V54.5114H72.2841C73.2311 54.5114 74.0114 54.3485 74.625 54.0227C75.2462 53.6894 75.7083 53.2311 76.0114 52.6477C76.322 52.0568 76.4773 51.3788 76.4773 50.6136C76.4773 49.8409 76.322 49.1667 76.0114 48.5909C75.7083 48.0076 75.2462 47.5568 74.625 47.2386C74.0038 46.9129 73.2159 46.75 72.2614 46.75H68.9432V66H64.0227ZM84.6506 66V48.5455H89.4915V66H84.6506ZM87.0824 46.2955C86.3627 46.2955 85.7453 46.0568 85.2301 45.5795C84.7225 45.0947 84.4688 44.5152 84.4688 43.8409C84.4688 43.1742 84.7225 42.6023 85.2301 42.125C85.7453 41.6402 86.3627 41.3977 87.0824 41.3977C87.8021 41.3977 88.4157 41.6402 88.9233 42.125C89.4384 42.6023 89.696 43.1742 89.696 43.8409C89.696 44.5152 89.4384 45.0947 88.9233 45.5795C88.4157 46.0568 87.8021 46.2955 87.0824 46.2955ZM98.2102 42.7273V66H93.3693V42.7273H98.2102ZM109.974 66.3409C108.209 66.3409 106.683 65.9659 105.395 65.2159C104.115 64.4583 103.126 63.4053 102.429 62.0568C101.732 60.7008 101.384 59.1288 101.384 57.3409C101.384 55.5379 101.732 53.9621 102.429 52.6136C103.126 51.2576 104.115 50.2045 105.395 49.4545C106.683 48.697 108.209 48.3182 109.974 48.3182C111.74 48.3182 113.262 48.697 114.543 49.4545C115.83 50.2045 116.823 51.2576 117.52 52.6136C118.217 53.9621 118.565 55.5379 118.565 57.3409C118.565 59.1288 118.217 60.7008 117.52 62.0568C116.823 63.4053 115.83 64.4583 114.543 65.2159C113.262 65.9659 111.74 66.3409 109.974 66.3409ZM109.997 62.5909C110.8 62.5909 111.471 62.3636 112.009 61.9091C112.546 61.447 112.952 60.8182 113.224 60.0227C113.505 59.2273 113.645 58.322 113.645 57.3068C113.645 56.2917 113.505 55.3864 113.224 54.5909C112.952 53.7955 112.546 53.1667 112.009 52.7045C111.471 52.2424 110.8 52.0114 109.997 52.0114C109.187 52.0114 108.505 52.2424 107.952 52.7045C107.406 53.1667 106.993 53.7955 106.713 54.5909C106.44 55.3864 106.304 56.2917 106.304 57.3068C106.304 58.322 106.44 59.2273 106.713 60.0227C106.993 60.8182 107.406 61.447 107.952 61.9091C108.505 62.3636 109.187 62.5909 109.997 62.5909ZM130.997 48.5455V52.1818H120.486V48.5455H130.997ZM122.872 44.3636H127.713V60.6364C127.713 61.0833 127.781 61.4318 127.918 61.6818C128.054 61.9242 128.243 62.0947 128.486 62.1932C128.736 62.2917 129.024 62.3409 129.349 62.3409C129.577 62.3409 129.804 62.322 130.031 62.2841C130.259 62.2386 130.433 62.2045 130.554 62.1818L131.315 65.7841C131.073 65.8598 130.732 65.947 130.293 66.0455C129.853 66.1515 129.319 66.2159 128.69 66.2386C127.524 66.2841 126.501 66.1288 125.622 65.7727C124.751 65.4167 124.073 64.8636 123.588 64.1136C123.103 63.3636 122.865 62.4167 122.872 61.2727V44.3636Z" fill="#00ECAA"/>
</svg>
